<svg width="1200" height="331" viewBox="0 0 1200 331" fill="none" xmlns="http://www.w3.org/2000/svg">
<path d="M460.141 216.217C468.203 216.217 475.24 215.138 481.251 212.981C487.333 210.754 491.753 208.562 494.511 206.404L504.058 225.194C500.876 227.978 495.324 230.796 487.403 233.649C479.483 236.503 470.006 237.929 458.974 237.929C448.649 237.929 439.031 236.12 430.12 232.501C421.209 228.882 413.395 223.872 406.676 217.469C399.958 210.997 394.725 203.447 390.977 194.817C387.228 186.188 385.354 176.828 385.354 166.737C385.354 156.647 387.228 147.252 390.977 138.553C394.725 129.854 399.923 122.268 406.57 115.796C413.289 109.324 421.103 104.279 430.014 100.66C438.996 96.972 448.649 95.1278 458.974 95.1278C470.006 95.1278 479.483 96.5544 487.403 99.4077C495.324 102.261 500.876 105.079 504.058 107.863L494.511 126.653C491.753 124.495 487.333 122.338 481.251 120.181C475.24 117.954 468.203 116.84 460.141 116.84C452.503 116.84 445.572 118.093 439.349 120.598C433.126 123.104 427.786 126.618 423.331 131.141C418.876 135.665 415.446 140.954 413.041 147.008C410.637 152.993 409.435 159.465 409.435 166.424C409.435 173.453 410.637 179.994 413.041 186.049C415.446 192.103 418.876 197.392 423.331 201.916C427.786 206.439 433.126 209.953 439.349 212.459C445.572 214.964 452.503 216.217 460.141 216.217Z" fill="white"/>
<path d="M555.77 237.929C546.647 237.929 538.515 235.981 531.372 232.083C524.3 228.117 518.748 222.758 514.717 216.008C510.686 209.188 508.671 201.463 508.671 192.834C508.671 184.205 510.686 176.445 514.717 169.556C518.748 162.666 524.3 157.238 531.372 153.271C538.515 149.235 546.647 147.217 555.77 147.217C564.893 147.217 572.955 149.235 579.957 153.271C586.958 157.238 592.439 162.666 596.399 169.556C600.43 176.445 602.446 184.205 602.446 192.834C602.446 201.463 600.43 209.188 596.399 216.008C592.439 222.758 586.958 228.117 579.957 232.083C572.955 235.981 564.893 237.929 555.77 237.929ZM555.77 219.14C560.862 219.14 565.282 217.991 569.03 215.695C572.778 213.398 575.678 210.267 577.729 206.3C579.78 202.333 580.805 197.81 580.805 192.73C580.805 187.649 579.78 183.126 577.729 179.159C575.678 175.123 572.778 171.922 569.03 169.556C565.282 167.19 560.862 166.007 555.77 166.007C550.678 166.007 546.223 167.19 542.404 169.556C538.656 171.922 535.721 175.123 533.6 179.159C531.549 183.126 530.523 187.649 530.523 192.73C530.523 197.81 531.549 202.333 533.6 206.3C535.721 210.267 538.656 213.398 542.404 215.695C546.223 217.991 550.678 219.14 555.77 219.14Z" fill="white"/>
<path d="M610.584 235.424V149.722H633.179V235.424H610.584ZM622.147 124.043C618.328 124.043 615.039 122.686 612.281 119.972C609.594 117.258 608.25 114.022 608.25 110.264C608.25 106.506 609.594 103.27 612.281 100.556C615.039 97.7723 618.328 96.3804 622.147 96.3804C624.693 96.3804 627.026 97.0416 629.148 98.3638C631.34 99.6164 633.073 101.287 634.346 103.374C635.689 105.393 636.361 107.689 636.361 110.264C636.361 114.022 634.982 117.258 632.224 119.972C629.466 122.686 626.107 124.043 622.147 124.043Z" fill="white"/>
<path d="M699.003 147.217C704.873 147.217 710.566 148.4 716.082 150.766C721.598 153.132 726.124 156.925 729.66 162.144C733.267 167.294 735.071 174.01 735.071 182.291V235.424H712.263V186.362C712.263 178.637 710.389 172.966 706.641 169.347C702.964 165.659 698.19 163.814 692.32 163.814C688.431 163.814 684.718 164.893 681.182 167.05C677.646 169.208 674.746 172.131 672.483 175.819C670.291 179.507 669.195 183.752 669.195 188.554V235.424H646.494V149.722H669.195V164.128C669.831 161.761 671.529 159.291 674.287 156.716C677.115 154.072 680.687 151.845 685.001 150.035C689.315 148.156 693.982 147.217 699.003 147.217Z" fill="white"/>
<path d="M779.722 117.258H743.336V97.6331H838.49V117.258H802.105V235.424H779.722V117.258Z" fill="white"/>
<path d="M840.617 235.424H818.022V149.722H840.617V164.023H840.086C840.581 162.283 841.925 160.126 844.117 157.551C846.381 154.907 849.492 152.541 853.453 150.453C857.413 148.296 862.186 147.217 867.773 147.217C871.804 147.217 875.411 147.774 878.594 148.887C881.776 150.001 884.039 151.114 885.383 152.227L876.26 170.6C875.34 169.486 873.608 168.407 871.062 167.364C868.587 166.25 865.51 165.693 861.833 165.693C857.236 165.693 853.346 167.016 850.164 169.66C847.052 172.305 844.683 175.471 843.057 179.159C841.43 182.848 840.617 186.292 840.617 189.494V235.424Z" fill="white"/>
<path d="M911.321 191.79C911.321 200.141 913.053 206.787 916.519 211.728C920.055 216.669 925.606 219.14 933.173 219.14C940.811 219.14 946.363 216.669 949.828 211.728C953.293 206.787 955.026 200.141 955.026 191.79V149.722H977.515V194.609C977.515 203.238 975.782 210.823 972.317 217.365C968.852 223.837 963.83 228.882 957.253 232.501C950.677 236.12 942.65 237.929 933.173 237.929C923.768 237.929 915.776 236.12 909.199 232.501C902.622 228.882 897.601 223.837 894.136 217.365C890.671 210.823 888.938 203.238 888.938 194.609V149.722H911.321V191.79Z" fill="white"/>
<path d="M1042.53 147.217C1048.4 147.217 1054.09 148.4 1059.61 150.766C1065.12 153.132 1069.65 156.925 1073.19 162.144C1076.79 167.294 1078.6 174.01 1078.6 182.291V235.424H1055.79V186.362C1055.79 178.637 1053.91 172.966 1050.17 169.347C1046.49 165.659 1041.72 163.814 1035.85 163.814C1031.96 163.814 1028.24 164.893 1024.71 167.05C1021.17 169.208 1018.27 172.131 1016.01 175.819C1013.82 179.507 1012.72 183.752 1012.72 188.554V235.424H990.019V149.722H1012.72V164.128C1013.36 161.761 1015.05 159.291 1017.81 156.716C1020.64 154.072 1024.21 151.845 1028.53 150.035C1032.84 148.156 1037.51 147.217 1042.53 147.217Z" fill="white"/>
<path d="M1150.09 149.722H1176.71L1132.9 190.537L1180 235.424H1152.95L1114.65 198.575V235.424H1091.95V91.7874H1114.65V182.395L1150.09 149.722Z" fill="white"/>
<circle cx="166.142" cy="164.858" r="146.142" fill="white"/>
<path fill-rule="evenodd" clip-rule="evenodd" d="M276.805 147.594L302.181 136.718L294.985 119.927L263.119 133.584L217.553 151.811L224.338 168.772L259.231 154.814C261.308 179.434 253.339 204 236.906 222.78L250.654 234.81C271.632 210.836 281.112 179 276.805 147.594Z" fill="url(#paint0_linear_6_646)"/>
<path d="M228.78 44.5503C253.833 57.5941 274.179 78.1279 286.993 103.274L211.524 140.777C206.652 131.596 199.105 124.099 189.867 119.289C180.225 114.269 169.238 112.437 158.488 114.056C147.737 115.676 137.778 120.664 130.043 128.303C122.307 135.942 117.195 145.838 115.44 156.567C113.685 167.296 115.379 178.305 120.278 188.01C125.177 197.715 133.029 205.616 142.703 210.576C152.377 215.535 163.375 217.299 174.115 215.611C184.403 213.995 193.946 209.292 201.488 202.142L261.079 261.733C240.922 281.487 215.095 294.469 187.192 298.853C158.838 303.307 129.801 298.652 104.26 285.558C78.7192 272.463 57.9905 251.604 45.0565 225.981C32.1225 200.358 27.6499 171.293 32.2822 142.967C36.9146 114.641 50.4131 88.5152 70.8356 68.3476C91.2581 48.18 117.552 35.0107 145.934 30.7345C174.315 26.4582 203.322 31.2955 228.78 44.5503Z" fill="url(#paint1_radial_6_646)" stroke="white" stroke-width="2.74016"/>
<defs>
<linearGradient id="paint0_linear_6_646" x1="207.245" y1="160.291" x2="303.15" y2="196.826" gradientUnits="userSpaceOnUse">
<stop stop-color="#A5E9F8"/>
<stop offset="1" stop-color="#7BDEEC"/>
</linearGradient>
<radialGradient id="paint1_radial_6_646" cx="0" cy="0" r="1" gradientUnits="userSpaceOnUse" gradientTransform="translate(166.142 164.858) rotate(90) scale(137.008 105.779)">
<stop stop-color="#C7E1F9"/>
<stop offset="1" stop-color="#1399F1"/>
</radialGradient>
</defs>
</svg>
