<svg width="1200" height="331" viewBox="0 0 1200 331" fill="none" xmlns="http://www.w3.org/2000/svg">
<path d="M460.141 216.539C468.203 216.539 475.239 215.461 481.251 213.303C487.333 211.077 491.753 208.884 494.511 206.727L504.058 225.517C500.875 228.3 495.324 231.119 487.403 233.972C479.483 236.825 470.006 238.252 458.974 238.252C448.649 238.252 439.031 236.443 430.12 232.824C421.209 229.205 413.395 224.194 406.676 217.792C399.958 211.32 394.725 203.769 390.976 195.14C387.228 186.511 385.354 177.151 385.354 167.06C385.354 156.969 387.228 147.574 390.976 138.876C394.725 130.177 399.923 122.591 406.57 116.119C413.289 109.647 421.103 104.602 430.014 100.983C438.995 97.2947 448.649 95.4505 458.974 95.4505C470.006 95.4505 479.483 96.8772 487.403 99.7304C495.324 102.584 500.875 105.402 504.058 108.186L494.511 126.975C491.753 124.818 487.333 122.661 481.251 120.503C475.239 118.276 468.203 117.163 460.141 117.163C452.503 117.163 445.572 118.416 439.349 120.921C433.126 123.426 427.786 126.941 423.331 131.464C418.876 135.987 415.446 141.276 413.041 147.331C410.637 153.316 409.434 159.788 409.434 166.747C409.434 173.776 410.637 180.317 413.041 186.372C415.446 192.426 418.876 197.715 423.331 202.238C427.786 206.762 433.126 210.276 439.349 212.781C445.572 215.287 452.503 216.539 460.141 216.539Z" fill="black"/>
<path d="M555.77 238.252C546.647 238.252 538.515 236.303 531.372 232.406C524.3 228.44 518.748 223.081 514.717 216.331C510.686 209.511 508.671 201.786 508.671 193.157C508.671 184.527 510.686 176.768 514.717 169.878C518.748 162.989 524.3 157.561 531.372 153.594C538.515 149.558 546.647 147.54 555.77 147.54C564.893 147.54 572.955 149.558 579.956 153.594C586.958 157.561 592.439 162.989 596.399 169.878C600.43 176.768 602.445 184.527 602.445 193.157C602.445 201.786 600.43 209.511 596.399 216.331C592.439 223.081 586.958 228.44 579.956 232.406C572.955 236.303 564.893 238.252 555.77 238.252ZM555.77 219.462C560.862 219.462 565.282 218.314 569.03 216.017C572.778 213.721 575.678 210.589 577.729 206.623C579.78 202.656 580.805 198.133 580.805 193.052C580.805 187.972 579.78 183.449 577.729 179.482C575.678 175.446 572.778 172.245 569.03 169.878C565.282 167.512 560.862 166.329 555.77 166.329C550.678 166.329 546.223 167.512 542.404 169.878C538.656 172.245 535.721 175.446 533.599 179.482C531.549 183.449 530.523 187.972 530.523 193.052C530.523 198.133 531.549 202.656 533.599 206.623C535.721 210.589 538.656 213.721 542.404 216.017C546.223 218.314 550.678 219.462 555.77 219.462Z" fill="black"/>
<path d="M610.584 235.747V150.045H633.179V235.747H610.584ZM622.146 124.366C618.328 124.366 615.039 123.009 612.281 120.295C609.594 117.581 608.25 114.345 608.25 110.587C608.25 106.829 609.594 103.593 612.281 100.879C615.039 98.095 618.328 96.7032 622.146 96.7032C624.692 96.7032 627.026 97.3643 629.148 98.6865C631.34 99.9392 633.073 101.609 634.346 103.697C635.689 105.715 636.361 108.012 636.361 110.587C636.361 114.345 634.982 117.581 632.224 120.295C629.466 123.009 626.107 124.366 622.146 124.366Z" fill="black"/>
<path d="M699.003 147.54C704.873 147.54 710.566 148.723 716.082 151.089C721.598 153.455 726.124 157.248 729.66 162.467C733.267 167.617 735.07 174.332 735.07 182.614V235.747H712.263V186.685C712.263 178.96 710.389 173.288 706.641 169.67C702.963 165.981 698.19 164.137 692.32 164.137C688.43 164.137 684.718 165.216 681.182 167.373C677.646 169.531 674.746 172.453 672.483 176.142C670.291 179.83 669.195 184.075 669.195 188.877V235.747H646.494V150.045H669.195V164.45C669.831 162.084 671.528 159.614 674.286 157.039C677.115 154.394 680.687 152.167 685.001 150.358C689.315 148.479 693.982 147.54 699.003 147.54Z" fill="black"/>
<path d="M779.722 117.581H743.336V97.9558H838.49V117.581H802.105V235.747H779.722V117.581Z" fill="black"/>
<path d="M840.617 235.747H818.022V150.045H840.617V164.346H840.086C840.581 162.606 841.925 160.449 844.117 157.874C846.38 155.229 849.492 152.863 853.452 150.776C857.413 148.618 862.186 147.54 867.773 147.54C871.804 147.54 875.411 148.096 878.593 149.21C881.776 150.323 884.039 151.437 885.382 152.55L876.26 170.922C875.34 169.809 873.608 168.73 871.062 167.686C868.586 166.573 865.51 166.016 861.833 166.016C857.236 166.016 853.346 167.338 850.164 169.983C847.052 172.627 844.683 175.794 843.057 179.482C841.43 183.17 840.617 186.615 840.617 189.816V235.747Z" fill="black"/>
<path d="M911.321 192.113C911.321 200.464 913.053 207.11 916.519 212.051C920.055 216.992 925.606 219.462 933.173 219.462C940.811 219.462 946.362 216.992 949.828 212.051C953.293 207.11 955.026 200.464 955.026 192.113V150.045H977.515V194.931C977.515 203.561 975.782 211.146 972.317 217.688C968.851 224.16 963.83 229.205 957.253 232.824C950.676 236.443 942.65 238.252 933.173 238.252C923.767 238.252 915.776 236.443 909.199 232.824C902.622 229.205 897.601 224.16 894.136 217.688C890.67 211.146 888.938 203.561 888.938 194.931V150.045H911.321V192.113Z" fill="black"/>
<path d="M1042.53 147.54C1048.4 147.54 1054.09 148.723 1059.61 151.089C1065.12 153.455 1069.65 157.248 1073.19 162.467C1076.79 167.617 1078.6 174.332 1078.6 182.614V235.747H1055.79V186.685C1055.79 178.96 1053.91 173.288 1050.17 169.67C1046.49 165.981 1041.72 164.137 1035.85 164.137C1031.96 164.137 1028.24 165.216 1024.71 167.373C1021.17 169.531 1018.27 172.453 1016.01 176.142C1013.82 179.83 1012.72 184.075 1012.72 188.877V235.747H990.019V150.045H1012.72V164.45C1013.36 162.084 1015.05 159.614 1017.81 157.039C1020.64 154.394 1024.21 152.167 1028.53 150.358C1032.84 148.479 1037.51 147.54 1042.53 147.54Z" fill="black"/>
<path d="M1150.09 150.045H1176.71L1132.9 190.86L1180 235.747H1152.95L1114.65 198.898V235.747H1091.95V92.1102H1114.65V182.718L1150.09 150.045Z" fill="black"/>
<circle cx="166.142" cy="165.181" r="146.142" fill="black"/>
<path d="M228.78 44.8731C253.833 57.917 274.179 78.4507 286.993 103.597L211.524 141.1C206.652 131.919 199.105 124.422 189.867 119.612C180.225 114.592 169.238 112.76 158.488 114.379C147.737 115.999 137.778 120.987 130.043 128.626C122.307 136.265 117.195 146.161 115.44 156.89C113.685 167.618 115.379 178.627 120.278 188.333C125.177 198.038 133.029 205.938 142.703 210.898C152.377 215.858 163.375 217.621 174.115 215.934C184.403 214.318 193.946 209.615 201.488 202.465L261.079 262.056C240.922 281.809 215.095 294.792 187.192 299.176C158.838 303.63 129.801 298.975 104.26 285.88C78.7192 272.786 57.9905 251.926 45.0565 226.304C32.1225 200.681 27.6499 171.616 32.2822 143.29C36.9146 114.964 50.4131 88.838 70.8356 68.6704C91.2581 48.5028 117.552 35.3335 145.934 31.0573C174.315 26.781 203.322 31.6183 228.78 44.8731Z" fill="url(#paint0_radial_6_640)" stroke="url(#paint1_radial_6_640)" stroke-width="2.74016"/>
<path fill-rule="evenodd" clip-rule="evenodd" d="M276.805 147.916L302.181 137.041L294.985 120.25L263.119 133.907L217.553 152.134L224.338 169.095L259.231 155.137C261.308 179.756 253.339 204.323 236.906 223.103L250.654 235.133C271.631 211.158 281.112 179.323 276.805 147.916Z" fill="url(#paint2_linear_6_640)"/>
<defs>
<radialGradient id="paint0_radial_6_640" cx="0" cy="0" r="1" gradientUnits="userSpaceOnUse" gradientTransform="translate(166.142 165.181) rotate(90) scale(137.008 105.779)">
<stop stop-color="#C7E1F9"/>
<stop offset="1" stop-color="#1399F1"/>
</radialGradient>
<radialGradient id="paint1_radial_6_640" cx="0" cy="0" r="1" gradientUnits="userSpaceOnUse" gradientTransform="translate(166.142 165.181) rotate(90) scale(137.008 105.779)">
<stop stop-color="#C7E1F9"/>
<stop offset="1" stop-color="#1399F1"/>
</radialGradient>
<linearGradient id="paint2_linear_6_640" x1="207.245" y1="160.614" x2="303.15" y2="197.149" gradientUnits="userSpaceOnUse">
<stop stop-color="#A5E9F8"/>
<stop offset="1" stop-color="#7BDEEC"/>
</linearGradient>
</defs>
</svg>
