<?xml version="1.0" encoding="utf-8"?>
<!-- Generator: Adobe Illustrator 25.2.3, SVG Export Plug-In . SVG Version: 6.00 Build 0)  -->
<svg version="1.1"
	 id="svg196" inkscape:version="1.0.2 (e86c8708, 2021-01-15)" sodipodi:docname="logo-color.svg" xmlns:cc="http://creativecommons.org/ns#" xmlns:dc="http://purl.org/dc/elements/1.1/" xmlns:inkscape="http://www.inkscape.org/namespaces/inkscape" xmlns:rdf="http://www.w3.org/1999/02/22-rdf-syntax-ns#" xmlns:sodipodi="http://sodipodi.sourceforge.net/DTD/sodipodi-0.dtd" xmlns:svg="http://www.w3.org/2000/svg"
	 xmlns="http://www.w3.org/2000/svg" xmlns:xlink="http://www.w3.org/1999/xlink" x="0px" y="0px" viewBox="0 0 512 512"
	 style="enable-background:new 0 0 512 512;" xml:space="preserve">
<style type="text/css">
	.st0{fill-rule:evenodd;clip-rule:evenodd;fill:#4BC1BE;}
</style>
<sodipodi:namedview  bordercolor="#666666" borderopacity="1" gridtolerance="10" guidetolerance="10" id="namedview198" inkscape:current-layer="Layer_5" inkscape:cx="143.55428" inkscape:cy="10.420342" inkscape:pageopacity="0" inkscape:pageshadow="2" inkscape:window-height="1165" inkscape:window-maximized="0" inkscape:window-width="2014" inkscape:window-x="1084" inkscape:window-y="172" inkscape:zoom="3.8436242" objecttolerance="10" pagecolor="#ffffff" showgrid="true">
	<inkscape:grid  id="grid204" originx="0.19999999" originy="-0.1" type="xygrid"></inkscape:grid>
</sodipodi:namedview>
<g id="Layer_5" transform="translate(0.2,-0.1)" inkscape:label="everything">
	<path id="path184" inkscape:label="logo" class="st0" d="M453.2,96.9c-12.4-15.8-26.6-30.2-42.7-42.4c-15.8-12-33.1-22-52.3-30.1
		C327.5,11.6,291.6,3.9,255.8,3.9c-38.4,0-71.7,7.7-102.4,20.5S94.5,55.1,71.5,78.2s-41,51.2-53.8,81.9s-17.9,64-17.9,97.3
		s5.1,66.6,17.9,97.3s28.2,56.3,51.2,76.8l71.7-130.6l71.7,71.7l79.4-189.4l-33.3-15.4l46.1-33.3l46.1-33.3l7.7,56.3l7.7,56.3
		l-33.3-15.4L230.2,441.7l-76.8-74.2l-48.6,92.2c15.4,12.8,33.3,20.5,51.2,28.2c30.7,12.8,66.6,20.5,102.4,20.5
		c38.4,0,71.7-7.7,102.4-20.5c61.4-25.6,110.1-74.2,133.1-135.7c12.8-30.7,17.9-64,17.9-97.3c0-0.3,0-0.7,0-1
		c-0.2-48.9-15.5-96.5-43.5-136.6C463.3,110.2,458.3,103.4,453.2,96.9z"/>
</g>
</svg>
