<?xml version="1.0" encoding="UTF-8"?>
<svg id="Layer_2" data-name="Layer 2" xmlns="http://www.w3.org/2000/svg" viewBox="0 0 900 550">
  <defs>
    <style>
      .cls-1 {
        fill: #f6f6f6;
      }

      .cls-1, .cls-2, .cls-3 {
        stroke-width: 0px;
      }

      .cls-2 {
        fill: transparent;
      }

      .cls-3 {
        fill: #f6f;
      }
    </style>
  </defs>
  <g id="Ping">
    <g>
      <rect class="cls-2" width="900" height="550"/>
      <g>
        <path class="cls-1" d="M686.95,289.54c8.15,0,14.3-6.15,14.3-14.3s-6.15-14.3-14.3-14.3-14.3,6.15-14.3,14.3,6.15,14.3,14.3,14.3M639.6,275.24l14.76-43.36h65.19l14.61,43.36-14.61,43.36h-65.19l-14.76-43.36Z"/>
        <path class="cls-1" d="M597.47,277.7c-6.92,0-11.99-5.07-11.99-11.99s5.07-11.84,11.99-11.84,12,5.07,12,11.84-5.07,11.99-12,11.99M586.55,232.04c-21.07,0-33.67,14.3-33.67,33.37s12.61,33.52,33.67,33.52h15.53c4.46,0,7.53,2.92,7.53,7.07v1.71c0,4.15-3.07,7.23-7.53,7.23h-46.43v25.37h80.11v-108.26h-49.2Z"/>
        <rect class="cls-1" x="343.45" y="231.89" width="35.98" height="86.73"/>
        <path class="cls-1" d="M251.5,210.2h35.22v34.91c0,4.61,2.77,7.54,7.23,7.54s7.23-2.92,7.23-7.54v-13.22h35.21v36.14h-51.21c-4.46,0-7.54,2.92-7.54,7.07s3.08,7.07,7.54,7.07h51.21v36.45h-35.21v-13.53c0-4.61-2.77-7.54-7.23-7.54s-7.23,2.92-7.23,7.54v13.53h-35.22v-108.41Z"/>
        <path class="cls-1" d="M165.84,311.31h47.98c4.46,0,7.53-2.92,7.53-7.07s-3.07-7.23-7.53-7.23l-47.98-.31v-64.82h78.58v28.91h-47.98c-4.46,0-7.54,2.92-7.54,7.07s3.08,7.23,7.54,7.23h47.98v65.2h-78.58v-28.98Z"/>
        <path class="cls-1" d="M428.65,289.09c7.84,0,13.84-6,13.84-13.84s-6-13.84-13.84-13.84-13.84,6-13.84,13.84,6,13.84,13.84,13.84M430.18,231.89c26.45,0,44.59,17.68,44.59,43.37s-18.15,43.37-44.59,43.37h-9.07v21.68h-34.6v-108.41h43.67Z"/>
        <path class="cls-3" d="M405.38,202.7c0,12.37-10.03,22.4-22.4,22.4s-22.4-10.03-22.4-22.4,10.03-22.4,22.4-22.4,22.4,10.03,22.4,22.4"/>
        <path class="cls-3" d="M546.04,251.97c0,12.37-10.03,22.4-22.4,22.4s-22.4-10.03-22.4-22.4,10.03-22.4,22.4-22.4,22.4,10.03,22.4,22.4"/>
        <path class="cls-3" d="M524.5,298.51c0,12.37-10.03,22.4-22.4,22.4s-22.4-10.03-22.4-22.4,10.03-22.4,22.4-22.4,22.4,10.03,22.4,22.4"/>
      </g>
    </g>
  </g>
</svg>